<?xml version="1.0" encoding="UTF-8"?>
<svg version="1.1" xmlns="http://www.w3.org/2000/svg" width="176" height="154">
<path d="M0 0 C58.08 0 116.16 0 176 0 C176 50.82 176 101.64 176 154 C117.92 154 59.84 154 0 154 C0 103.18 0 52.36 0 0 Z " fill="#2C2D2E" transform="translate(0,0)"/>
<path d="M0 0 C0.495 0.99 0.495 0.99 1 2 C-22.43 2 -45.86 2 -70 2 C-51.5924921 -16.4075079 -20.36237489 -12.28764002 0 0 Z " fill="#CFE2EE" transform="translate(126,31)"/>
<path d="M0 0 C35.97 0 71.94 0 109 0 C109.99 2.475 109.99 2.475 111 5 C73.71 5 36.42 5 -2 5 C-1.34 3.35 -0.68 1.7 0 0 Z " fill="#C7DAE5" transform="translate(37,54)"/>
<path d="M0 0 C33.33 0 66.66 0 101 0 C101.99 2.475 101.99 2.475 103 5 C68.35 5 33.7 5 -2 5 C-1.34 3.35 -0.68 1.7 0 0 Z " fill="#C8DBE6" transform="translate(41,47)"/>
<path d="M0 0 C40.59 0 81.18 0 123 0 C123 1.32 123 2.64 123 4 C82.41 4 41.82 4 0 4 C0 2.68 0 1.36 0 0 Z " fill="#A6B5BE" transform="translate(30,87)"/>
<path d="M0 0 C40.59 0 81.18 0 123 0 C123 1.32 123 2.64 123 4 C82.41 4 41.82 4 0 4 C0 2.68 0 1.36 0 0 Z " fill="#C5D8E3" transform="translate(30,74)"/>
<path d="M0 0 C39.27 0 78.54 0 119 0 C119.495 1.98 119.495 1.98 120 4 C80.07 4 40.14 4 -1 4 C-0.67 2.68 -0.34 1.36 0 0 Z " fill="#C0D2DC" transform="translate(32,67)"/>
<path d="M0 0 C1.61150735 -0.02968469 3.22366617 -0.03170134 4.83532715 -0.01205444 C6.15792793 -0.02519684 6.15792793 -0.02519684 7.50724792 -0.03860474 C10.42114506 -0.06060716 13.33352403 -0.04604311 16.24743652 -0.02914429 C18.27238252 -0.03251218 20.29732655 -0.03736457 22.32226562 -0.04364014 C26.56591033 -0.05101261 30.80902878 -0.04029369 35.0526123 -0.01693726 C40.49387752 0.01155051 45.93390973 -0.00485142 51.3751297 -0.03479958 C55.55647075 -0.05286228 59.73751918 -0.04711919 63.91886902 -0.03416061 C65.92514695 -0.03082377 67.9314514 -0.03492343 69.93769836 -0.04655838 C72.74153058 -0.05925008 75.54336279 -0.03991403 78.3470459 -0.01205444 C79.17729782 -0.0221756 80.00754974 -0.03229675 80.86296082 -0.04272461 C83.18237305 0 83.18237305 0 87.09118652 0.63491821 C88.41118652 2.28491821 89.73118652 3.93491821 91.09118652 5.63491821 C58.42118652 5.63491821 25.75118652 5.63491821 -7.90881348 5.63491821 C-3.90881348 0.63491821 -3.90881348 0.63491821 0 0 Z " fill="#D0E3EF" transform="translate(49.9088134765625,40.365081787109375)"/>
<path d="M0 0 C37.95 0 75.9 0 115 0 C115.495 1.98 115.495 1.98 116 4 C77.39 4 38.78 4 -1 4 C-0.67 2.68 -0.34 1.36 0 0 Z " fill="#D1E5F1" transform="translate(34,61)"/>
<path d="M0 0 C1.36023862 -0.02961386 2.72124656 -0.03174297 4.08166504 -0.01205444 C5.19944084 -0.02519684 5.19944084 -0.02519684 6.33979797 -0.03860474 C8.79927055 -0.06058422 11.25694032 -0.04605298 13.71643066 -0.02914429 C15.42749374 -0.03251288 17.13855449 -0.03736587 18.84960938 -0.04364014 C22.4341919 -0.05100943 26.01815111 -0.04030464 29.60266113 -0.01693726 C34.19652671 0.0115512 38.78893185 -0.00485256 43.38274384 -0.03479958 C46.91557817 -0.05287139 50.44806648 -0.04711521 53.98091125 -0.03416061 C55.67458774 -0.03082625 57.36829568 -0.03491482 59.06193542 -0.04655838 C61.43003477 -0.05926607 63.7957728 -0.03989561 66.16369629 -0.01205444 C67.21270866 -0.02723618 67.21270866 -0.02723618 68.28291321 -0.04272461 C70.24536133 0 70.24536133 0 73.62268066 0.63491821 C74.94268066 2.28491821 76.26268066 3.93491821 77.62268066 5.63491821 C49.57268066 5.63491821 21.52268066 5.63491821 -7.37731934 5.63491821 C-3.37731934 0.63491821 -3.37731934 0.63491821 0 0 Z " fill="#D1E5F1" transform="translate(56.3773193359375,33.365081787109375)"/>
<path d="M0 0 C40.59 0 81.18 0 123 0 C123 0.99 123 1.98 123 3 C82.41 3 41.82 3 0 3 C0 2.01 0 1.02 0 0 Z " fill="#D1E5F1" transform="translate(30,81)"/>
<path d="M0 0 C39.93 0 79.86 0 121 0 C120.67 0.99 120.34 1.98 120 3 C80.73 3 41.46 3 1 3 C0.67 2.01 0.34 1.02 0 0 Z " fill="#C3D5E0" transform="translate(31,94)"/>
</svg>
