<?xml version="1.0" encoding="UTF-8"?>
<svg version="1.1" xmlns="http://www.w3.org/2000/svg" width="170" height="156">
<path d="M0 0 C56.1 0 112.2 0 170 0 C170 51.48 170 102.96 170 156 C113.9 156 57.8 156 0 156 C0 104.52 0 53.04 0 0 Z " fill="#B0F1D1" transform="translate(0,0)"/>
<path d="M0 0 C7.05940407 1.94389387 12.8963671 4.98473532 19 9 C20.3303125 9.86625 20.3303125 9.86625 21.6875 10.75 C28.49620863 17.37468948 32.2227629 25.02623927 35 34 C35.33 34.99 35.66 35.98 36 37 C36.09632897 38.81041793 36.12981533 40.62452753 36.125 42.4375 C36.12371094 43.49839844 36.12242188 44.55929688 36.12109375 45.65234375 C36.00069041 48.98091342 35.61285887 52.19840492 35.1875 55.5 C34.83271122 58.40789472 34.83271122 58.40789472 35 61 C37.18372155 63.71747401 37.18372155 63.71747401 40 65 C40.33 65.66 40.66 66.32 41 67 C41.72445312 66.95359375 42.44890625 66.9071875 43.1953125 66.859375 C49.35813759 66.6292962 53.20182377 66.68164139 58 71 C59.00642948 72.32848691 60.00692179 73.66150329 61 75 C61.804375 75.474375 62.60875 75.94875 63.4375 76.4375 C66.60496892 78.36888349 68.13937162 79.76112838 70 83 C70.78245132 87.79745404 70.74863332 91.6467013 68.375 95.9375 C62.20354792 101.29691891 56.69565287 101.43357472 48.87109375 101.36328125 C47.27020653 101.36402901 47.27020653 101.36402901 45.63697815 101.36479187 C43.38695406 101.36245719 41.13692708 101.35276456 38.88696289 101.33618164 C35.44588857 101.31255759 32.00558814 101.31562962 28.56445312 101.32226562 C26.37499539 101.31668944 24.18554091 101.30957994 21.99609375 101.30078125 C20.96890732 101.30169266 19.94172089 101.30260406 18.88340759 101.30354309 C17.44149803 101.28924507 17.44149803 101.28924507 15.97045898 101.2746582 C15.12917953 101.27005081 14.28790009 101.26544342 13.42112732 101.26069641 C7.85022273 100.66084575 4.55601723 98.24746502 1 94 C0.1875 91.1875 0.1875 91.1875 0 89 C-0.99 89.33 -1.98 89.66 -3 90 C-17.40316389 91.0767071 -28.4836177 87.91478991 -40 79 C-42.9154701 76.18601778 -45.64953586 73.30681345 -48 70 C-48 69.34 -48 68.68 -48 68 C-47.47535156 68.144375 -46.95070313 68.28875 -46.41015625 68.4375 C-33.35266551 71.56608347 -19.55222941 71.73473098 -7.80078125 64.6796875 C1.70050043 58.05593684 8.77166077 48.52824481 11 37 C12.09498935 24.386565 9.1800048 13.36000693 2 3 C1.34 2.01 0.68 1.02 0 0 Z " fill="#1D2320" transform="translate(75,31)"/>
<path d="M0 0 C3.89268077 2.43185134 5.69274069 5.22785504 7 9.625 C7.1546875 10.4603125 7.1546875 10.4603125 7.3125 11.3125 C7.8075 10.6525 8.3025 9.9925 8.8125 9.3125 C11.87728322 6.86067342 13.59253541 6.72634222 17.41796875 6.91796875 C20.31791189 7.52187443 21.54127436 9.01646676 23.3125 11.3125 C25.24328111 13.41880666 26.93621253 14.71982247 29.375 16.3125 C32.3125 18.3125 32.3125 18.3125 34.3125 21.3125 C34.23818909 25.32528936 33.74852913 27.67579574 31.47070312 31.00195312 C26.75814685 34.44966746 22.54202719 33.99323192 16.84375 33.90625 C15.17415222 33.90631042 15.17415222 33.90631042 13.4708252 33.90637207 C11.12062932 33.90101742 8.77043388 33.88343733 6.42041016 33.85449219 C2.82528903 33.81264885 -0.76795773 33.81342396 -4.36328125 33.8203125 C-6.64845051 33.80981942 -8.93361011 33.79688068 -11.21875 33.78125 C-12.29282104 33.78104858 -13.36689209 33.78084717 -14.47351074 33.78063965 C-23.86772215 33.63183612 -23.86772215 33.63183612 -27.6875 30.3125 C-30.14130136 26.63179796 -30.50402381 23.58675218 -29.6875 19.3125 C-27.28656707 16.08839007 -25.74499882 14.61799966 -21.875 13.5 C-21.153125 13.438125 -20.43125 13.37625 -19.6875 13.3125 C-19.605 12.095625 -19.5225 10.87875 -19.4375 9.625 C-18.91095753 5.49310426 -17.77813565 3.23143367 -14.6875 0.3125 C-9.68342037 -2.45291243 -5.06395593 -2.63325709 0 0 Z " fill="#ADEDCD" transform="translate(107.6875,94.6875)"/>
<path d="M0 0 C9.83552894 3.78289574 15.56514114 12.07592492 19.90625 21.30078125 C23.60672818 30.43303276 23.02890049 41.72399225 20 51 C19.27554688 51.01417969 18.55109375 51.02835938 17.8046875 51.04296875 C13.03484415 51.27828102 9.7439534 51.56715438 5.5625 54 C2.81732433 57.2138642 1.59458149 60.0562269 0.0625 63.9375 C-1.51587281 67.00140016 -4.14874681 68.15856565 -7 70 C-8.21533797 71.94122881 -8.21533797 71.94122881 -9.1875 74.12109375 C-9.53167969 74.84611084 -9.87585938 75.57112793 -10.23046875 76.31811523 C-10.61138672 77.15064819 -10.61138672 77.15064819 -11 78 C-26.09991735 78.75499587 -37.10602723 77.1798414 -49 67 C-45.72020994 65.90673665 -43.68100489 66.06223356 -40.25 66.25 C-28.39426974 66.31615921 -17.53614252 62.3020289 -9 54 C-8.17628906 53.21689453 -8.17628906 53.21689453 -7.3359375 52.41796875 C2.16592979 42.40446245 4.46092001 30.82798096 4.30078125 17.58984375 C4.10258926 12.64520757 2.88375086 8.48843945 0.875 3.96875 C0 2 0 2 0 0 Z " fill="#ADECCD" transform="translate(85,39)"/>
<path d="M0 0 C2.76223278 2.76223278 2.57856291 5.20706617 3 9 C5.64 8.67 8.28 8.34 11 8 C9 10 7 12 5 14 C5.66 16.31 6.32 18.62 7 21 C6.236875 20.34 5.47375 19.68 4.6875 19 C2.15722061 16.70149462 2.15722061 16.70149462 -1 17 C-3.68767578 19.43750025 -3.68767578 19.43750025 -6 22 C-5 19 -4 16 -3 13 C-6.465 11.02 -6.465 11.02 -10 9 C-6.67465243 7.89155081 -4.37817425 8.15545644 -1 9 C-0.67 6.03 -0.34 3.06 0 0 Z " fill="#262F2A" transform="translate(50,68)"/>
<path d="M0 0 C0.33 0 0.66 0 1 0 C1.33 1.65 1.66 3.3 2 5 C4.97 5.495 4.97 5.495 8 6 C7.319375 6.721875 6.63875 7.44375 5.9375 8.1875 C3.68262931 10.8205652 3.68262931 10.8205652 4.25 13.8125 C4.4975 14.534375 4.745 15.25625 5 16 C3.35 15.01 1.7 14.02 0 13 C-1.65 14.32 -3.3 15.64 -5 17 C-4.34 14.36 -3.68 11.72 -3 9 C-4.98 8.34 -6.96 7.68 -9 7 C-9 6.67 -9 6.34 -9 6 C-6.36 6 -3.72 6 -1 6 C-1.020625 5.195625 -1.04125 4.39125 -1.0625 3.5625 C-1 1 -1 1 0 0 Z " fill="#232B27" transform="translate(48,29)"/>
<path d="M0 0 C0.33 0 0.66 0 1 0 C1.33 1.65 1.66 3.3 2 5 C3.65 5.33 5.3 5.66 7 6 C6.484375 6.37125 5.96875 6.7425 5.4375 7.125 C3.63680017 9.03173152 3.63680017 9.03173152 4.3125 12.1875 C4.6528125 13.5796875 4.6528125 13.5796875 5 15 C4.01 14.34 3.02 13.68 2 13 C-1.12498166 12.6626154 -1.12498166 12.6626154 -3.1875 15 C-3.785625 15.66 -4.38375 16.32 -5 17 C-3.125 11.25 -3.125 11.25 -2 9 C-4.475 8.01 -4.475 8.01 -7 7 C-7 6.67 -7 6.34 -7 6 C-5.02 6 -3.04 6 -1 6 C-0.67 4.02 -0.34 2.04 0 0 Z " fill="#2B3631" transform="translate(127,61)"/>
</svg>
