<?xml version="1.0" encoding="UTF-8"?>
<svg version="1.1" xmlns="http://www.w3.org/2000/svg" width="334" height="388">
<path d="M0 0 C110.22 0 220.44 0 334 0 C334 128.04 334 256.08 334 388 C223.78 388 113.56 388 0 388 C0 259.96 0 131.92 0 0 Z " fill="#D7E8F2" transform="translate(0,0)"/>
<path d="M0 0 C0.66128906 0.30808594 1.32257813 0.61617187 2.00390625 0.93359375 C3.35321686 1.58789982 4.68080519 2.28692173 6 3 C4.3054832 4.12967787 2.60357838 5.24894986 0.87890625 6.33203125 C0.11449219 6.82058594 -0.64992187 7.30914062 -1.4375 7.8125 C-2.19933594 8.29332031 -2.96117187 8.77414063 -3.74609375 9.26953125 C-7.93106897 12.48260581 -10.43536908 16.62326671 -13.0625 21.125 C-20.89819335 33.50506136 -31.57121396 42.65507594 -46 46 C-48.86161194 46.23909118 -51.69283191 46.23596551 -54.5625 46.1875 C-55.29146484 46.18685547 -56.02042969 46.18621094 -56.77148438 46.18554688 C-60.94828863 46.15171138 -64.88701397 45.81220103 -69 45 C-65.35737318 30.32235663 -59.81705727 16.74669163 -46.77734375 7.96484375 C-43.94069309 6.42494768 -41.14280573 5.70552782 -38 5 C-46.5223336 5.83144718 -53.32939854 10.82077589 -59 17 C-71.59199039 34.23237203 -76.24648961 53.97747331 -75 75 C-74.66718703 76.66677065 -74.33381599 78.33342994 -74 80 C-73.7399793 82.93374334 -73.58788588 85.87134662 -73.4375 88.8125 C-73.39431641 89.60076172 -73.35113281 90.38902344 -73.30664062 91.20117188 C-73.20121679 93.13394215 -73.10016906 95.06695026 -73 97 C-72.45085937 95.7625 -72.45085937 95.7625 -71.890625 94.5 C-60.30933792 69.79325423 -41.41336887 50.79530583 -15.8125 40.9375 C7.57248208 32.68779799 32.57950746 32.33268564 55.33984375 42.6640625 C64.08218154 47.05448765 71.72643175 52.43166365 79 59 C79 59.33 79 59.66 79 60 C77.97261719 60.14695312 76.94523437 60.29390625 75.88671875 60.4453125 C58.65262234 63.13266313 48.31055284 71.18076625 36.5625 83.625 C27.73622712 92.51507726 16.50976832 98.38623684 5 103 C3.92621094 103.43570313 2.85242188 103.87140625 1.74609375 104.3203125 C-12.32930144 109.164552 -30.02134523 109.03392015 -44 104 C-45.17691406 103.62488281 -46.35382813 103.24976563 -47.56640625 102.86328125 C-54.38884849 100.53025623 -54.38884849 100.53025623 -57 99 C-58.03125 96.63671875 -58.03125 96.63671875 -58 94 C-56.26482781 90.0003946 -53.52970962 86.53897721 -51 83 C-50.55366211 82.36497559 -50.10732422 81.72995117 -49.64746094 81.07568359 C-38.30534678 65.02632219 -24.66972761 51.07621278 -5 46 C-0.74911735 45.57156511 3.42114837 45.61414557 7.6875 45.75 C8.78255859 45.76804688 9.87761719 45.78609375 11.00585938 45.8046875 C13.67153462 45.85124951 16.3352664 45.91661683 19 46 C1.36797653 42.13131287 -15.86133982 45.33899244 -31 55 C-34.12032496 57.20198542 -37.07019432 59.55217714 -40 62 C-40.99966797 62.78117187 -40.99966797 62.78117187 -42.01953125 63.578125 C-56.60239116 75.42849637 -67.25461672 95.46794065 -69.5703125 114.1484375 C-70.09191497 119.28752187 -70.19115559 124.39989058 -70.1875 129.5625 C-70.1884668 130.98973389 -70.1884668 130.98973389 -70.18945312 132.44580078 C-70.12810938 140.75369551 -69.3158415 148.79948779 -68 157 C-67.43410156 156.27425781 -66.86820313 155.54851562 -66.28515625 154.80078125 C-52.80574191 138.27985803 -35.28903685 126.89389981 -14 124 C3.62936239 122.74075983 17.56708131 125.01235867 32 136 C34.49477708 138.19819519 36.87771446 140.43587344 39 143 C39 143.33 39 143.66 39 144 C37.76636719 144.11214844 37.76636719 144.11214844 36.5078125 144.2265625 C23.95649753 145.7048929 16.72655428 151.40800784 6.87109375 158.890625 C3.06547401 161.68659052 -0.71441431 164.02091798 -5 166 C-5.83144531 166.391875 -6.66289062 166.78375 -7.51953125 167.1875 C-20.53565307 172.43035746 -35.3131862 171.58166342 -48.15234375 166.38671875 C-50.87404613 165.06133556 -53.43739849 163.60929487 -56 162 C-52.18562853 150.95421597 -41.29038886 140.71526537 -31.5 134.625 C-23.21396331 130.77791154 -16.10947388 129.59075575 -7 130 C-6.01 130 -5.02 130 -4 130 C-16.02015655 127.3551355 -26.37600615 129.67302874 -37.0625 135.625 C-46.51645715 141.67431663 -54.28955059 149.34492594 -60 159 C-60.56847656 159.89460937 -61.13695312 160.78921875 -61.72265625 161.7109375 C-67.12937067 171.45069256 -66.9096789 181.38865586 -66.88989258 192.30029297 C-67.02358703 195.57832673 -67.49596618 198.760317 -68 202 C-67.12077881 201.98428955 -66.24155762 201.9685791 -65.33569336 201.95239258 C-35.63047348 201.49354248 -35.63047348 201.49354248 -22.0625 203.3125 C-21.17876709 203.43020752 -20.29503418 203.54791504 -19.38452148 203.66918945 C-11.98218089 204.7826394 -4.65078153 206.48245868 2 210 C1.33453496 213.812954 0.26816348 217.29363471 -1.05371094 220.92919922 C-1.69007477 222.68790848 -1.69007477 222.68790848 -2.33929443 224.48214722 C-2.80430691 225.75633256 -3.26933415 227.03051251 -3.734375 228.3046875 C-4.21457978 229.62910903 -4.69441132 230.95366595 -5.17388916 232.27835083 C-6.43810801 235.76875886 -7.70625824 239.25772392 -8.97558594 242.74627686 C-10.9931666 248.29223846 -13.00622261 253.8398364 -15.01654816 259.38843155 C-15.71087553 261.30240903 -16.40774942 263.21544393 -17.10491943 265.12838745 C-19.8253467 272.62608769 -22.41323848 280.15386368 -24.89605713 287.73269653 C-26.12302523 291.36411374 -27.49362728 294.90724536 -28.96484375 298.4453125 C-29.76690171 300.42473101 -30.520547 302.42380146 -31.25390625 304.4296875 C-31.68574219 305.60789062 -32.11757812 306.78609375 -32.5625 308 C-33.15224609 309.6396875 -33.15224609 309.6396875 -33.75390625 311.3125 C-35 314 -35 314 -38 316 C-40.58045122 316.47639099 -43.07251924 316.83690375 -45.67578125 317.109375 C-46.46261795 317.19346619 -47.24945465 317.27755737 -48.06013489 317.36419678 C-57.70570137 318.2935668 -67.35959171 318.30001765 -77.04174805 318.26074219 C-80.19404159 318.24997766 -83.34576997 318.26072769 -86.49804688 318.2734375 C-116.14705019 318.30019837 -116.14705019 318.30019837 -121.29589844 314.14892578 C-123.70215207 311.11456411 -124.76568645 307.76188911 -125.9375 304.125 C-126.40420844 302.73152295 -126.87168652 301.33830348 -127.33984375 299.9453125 C-127.58093872 299.2190416 -127.82203369 298.49277069 -128.07043457 297.74449158 C-129.11638295 294.65638565 -130.20895388 291.58722346 -131.30859375 288.51782227 C-131.75202621 287.27889221 -132.19545868 286.03996216 -132.65232849 284.76348877 C-133.09706009 283.52153748 -133.54179169 282.27958618 -134 281 C-134.78032001 278.81496382 -135.56035884 276.62982721 -136.34008789 274.44458008 C-138.23529551 269.13483847 -140.1307607 263.82518888 -142.02643681 258.51561451 C-143.16045145 255.33932682 -144.2943453 252.16299611 -145.42797852 248.98657227 C-146.75501235 245.26826382 -148.08257359 241.55014378 -149.41015625 237.83203125 C-149.81130142 236.70779251 -150.21244659 235.58355377 -150.62574768 234.42524719 C-151.00972214 233.35010361 -151.39369659 232.27496002 -151.78930664 231.16723633 C-152.33737473 229.61995346 -152.33737473 229.61995346 -152.89651489 228.04141235 C-153.63910144 225.99470427 -154.4108361 223.95836325 -155.20968628 221.93295288 C-155.58578033 220.96854279 -155.96187439 220.00413269 -156.34936523 219.01049805 C-156.69080063 218.16335739 -157.03223602 217.31621674 -157.38401794 216.44340515 C-158.11260245 213.55334185 -157.93427816 211.81832049 -157 209 C-152.44305972 205.90071453 -147.58669159 205.16829199 -142.25 204.375 C-141.50234375 204.25382813 -140.7546875 204.13265625 -139.984375 204.0078125 C-137.65954865 203.64157273 -135.33246422 203.31373321 -133 203 C-132.2898877 202.89921143 -131.57977539 202.79842285 -130.84814453 202.69458008 C-122.06493902 201.62061377 -113.20680561 201.89160025 -104.375 201.9375 C-102.68619924 201.94252523 -100.99739704 201.94708632 -99.30859375 201.95117188 C-95.20569289 201.96209601 -91.10286273 201.9793042 -87 202 C-86.37861864 190.20154929 -88.37228034 183.93302864 -96 175 C-103.8806333 166.72335498 -116.28819928 160.26809941 -127.8203125 159.8671875 C-129.25520826 159.86454497 -130.69012247 159.86729941 -132.125 159.875 C-132.85332031 159.87113281 -133.58164063 159.86726562 -134.33203125 159.86328125 C-138.29518486 159.79225278 -138.29518486 159.79225278 -142 161 C-141.13955078 160.76023438 -141.13955078 160.76023438 -140.26171875 160.515625 C-133.05885854 158.87352215 -126.70347088 160.19838019 -120 163 C-118.81083984 163.49306641 -118.81083984 163.49306641 -117.59765625 163.99609375 C-109.98612219 167.47118592 -100.23289823 172.89938569 -97 181 C-109.76701657 190.31364323 -120.85134639 195.88572607 -136.99609375 193.5703125 C-144.81573507 192.01978387 -151.5972249 189.1359392 -158.6875 185.62109375 C-163.95376961 183.04385096 -167.91517402 181.7324137 -173.8125 181.375 C-174.97394531 181.30023438 -176.13539063 181.22546875 -177.33203125 181.1484375 C-178.65267578 181.07496094 -178.65267578 181.07496094 -180 181 C-176.34399737 170.49831896 -167.71904633 164.7334406 -158.4296875 159.59375 C-150.94282737 156.11466238 -144.37790778 155.66222665 -136.25 155.6875 C-135.2290625 155.67138672 -134.208125 155.65527344 -133.15625 155.63867188 C-116.75017039 155.62826193 -102.29242838 162.35951852 -90 173 C-89.30648437 173.58523437 -88.61296875 174.17046875 -87.8984375 174.7734375 C-86.25410414 176.16882796 -84.62515108 177.58231502 -83 179 C-83.01160156 178.32195312 -83.02320313 177.64390625 -83.03515625 176.9453125 C-83.04417969 176.01460937 -83.05320312 175.08390625 -83.0625 174.125 C-83.07410156 173.22007812 -83.08570313 172.31515625 -83.09765625 171.3828125 C-83.01856798 168.64319482 -82.81279457 166.01317404 -82.51953125 163.29296875 C-79.68945057 136.19310936 -84.21369317 111.18915072 -101.078125 89.32421875 C-106.89370017 82.29115528 -113.12191577 77.63274785 -121 73 C-121.94875 72.4225 -122.8975 71.845 -123.875 71.25 C-130.24004249 68.703983 -137.13942582 67 -144 67 C-143.12601563 67.12955078 -143.12601563 67.12955078 -142.234375 67.26171875 C-126.75231433 69.91509078 -114.39156627 77.36407448 -105 90 C-97.32868954 101.09389513 -92.68175553 112.29447996 -89.6875 125.375 C-89.51573242 126.12418701 -89.34396484 126.87337402 -89.16699219 127.64526367 C-88.19577839 132.19364643 -87.83438821 136.35060225 -88 141 C-111.97194942 141.67916605 -133.1612187 140.46595329 -151.5 123.4375 C-153.35410246 121.64473763 -155.17613561 119.82386439 -157 118 C-157.65355469 117.42894531 -158.30710938 116.85789062 -158.98046875 116.26953125 C-166.9007091 109.21924865 -171.64737523 98.7171714 -176.37963867 89.38549805 C-182.56297019 77.25463431 -190.4247464 66.99614741 -203 61 C-202.67 60.01 -202.34 59.02 -202 58 C-199.58885787 56.97132531 -197.3058459 56.14072898 -194.8125 55.375 C-194.15185547 55.1584375 -193.49121094 54.941875 -192.81054688 54.71875 C-170.42515929 47.55896167 -146.50232751 51.64185327 -126 62 C-105.80874217 72.92270905 -92.57633113 89.68356082 -81 109 C-80.05216026 76.26599004 -81.35957509 45.12594752 -104.75 19.75 C-112.88287098 11.98462613 -122.33573986 7.26892141 -133.5625 6.875 C-134.366875 6.91625 -135.17125 6.9575 -136 7 C-135.32195312 7.08636719 -134.64390625 7.17273437 -133.9453125 7.26171875 C-121.02025302 9.21300889 -112.20878399 14.86821206 -104 25 C-100.99355883 29.13155857 -98.45490783 33.52340337 -96 38 C-95.54496094 38.82371094 -95.08992188 39.64742187 -94.62109375 40.49609375 C-93.04094632 43.49672215 -92 45.56513686 -92 49 C-103.8790319 54.57587211 -118.64768494 54.7183599 -131.20703125 51.0234375 C-143.58360353 46.48824598 -153.22765189 38.17386391 -161.125 27.75 C-167.08415684 19.97718672 -174.98191878 15.50703158 -184 12 C-176.33574421 3.05836824 -164.65797542 -0.34724118 -153.2421875 -1.3203125 C-134.17198967 -1.88010304 -115.69965048 4.4107113 -101.1640625 16.953125 C-91.78374781 25.82548041 -84.88965155 36.05420514 -80 48 C-79.79246094 47.20078125 -79.58492188 46.4015625 -79.37109375 45.578125 C-75.7010435 32.4949333 -69.57608031 22.59279249 -60 13 C-59.37480469 12.36320312 -58.74960938 11.72640625 -58.10546875 11.0703125 C-42.78935277 -3.43969211 -19.38544099 -9.24536417 0 0 Z " fill="#442524" transform="translate(235,44)"/>
<path d="M0 0 C-3.38124788 1.12708263 -4.59979886 0.74552558 -8 0 C-18.90834559 -0.87132714 -27.48321025 1.88913143 -37 7 C-37 5.68 -37 4.36 -37 3 C-24.06249812 -3.04336823 -13.67701278 -4.98424761 0 0 Z " fill="#C7D3DC" transform="translate(236,175)"/>
<path d="M0 0 C1.216875 0.04125 2.43375 0.0825 3.6875 0.125 C1.13058084 1.50999788 -1.28347898 2.44865966 -4.0625 3.375 C-12.32002297 6.48497618 -17.11151006 11.65371312 -21.8671875 18.953125 C-23.84266082 21.9216741 -24.87978166 22.98076055 -28.3125 24.125 C-24.67329241 14.13467532 -16.35973752 5.50202753 -6.77734375 0.91015625 C-4.34442193 0.13516847 -2.53630372 -0.0859764 0 0 Z " fill="#C9D6DF" transform="translate(197.3125,47.875)"/>
<path d="M0 0 C1.38058594 -0.01836914 1.38058594 -0.01836914 2.7890625 -0.03710938 C8.13903546 -0.0485736 12.56645908 0.42467514 17.625 2.1875 C14.57172448 3.20525851 12.56168361 3.28958344 9.37109375 3.25 C7.84258789 3.23839844 7.84258789 3.23839844 6.28320312 3.2265625 C5.22037109 3.21367188 4.15753906 3.20078125 3.0625 3.1875 C0.95708191 3.16205688 -1.14839523 3.14100135 -3.25390625 3.125 C-4.1879126 3.11339844 -5.12191895 3.10179688 -6.08422852 3.08984375 C-8.40554161 3.03247385 -8.40554161 3.03247385 -10.375 4.1875 C-12.37460012 4.227492 -14.37547242 4.23096799 -16.375 4.1875 C-16.045 3.1975 -15.715 2.2075 -15.375 1.1875 C-10.20563817 0.03613692 -5.2751306 0.00366329 0 0 Z " fill="#BBC2CA" transform="translate(238.375,87.8125)"/>
<path d="M0 0 C1.07411133 -0.00580078 1.07411133 -0.00580078 2.16992188 -0.01171875 C5.60428156 -0.00535293 8.78114926 0.04549558 12.0625 1.125 C12.0625 2.115 12.0625 3.105 12.0625 4.125 C11.24458984 3.9084375 11.24458984 3.9084375 10.41015625 3.6875 C0.95791673 1.36079489 -5.59046547 1.56231469 -14.65234375 5.34765625 C-15.40644531 5.60417969 -16.16054687 5.86070312 -16.9375 6.125 C-17.5975 5.795 -18.2575 5.465 -18.9375 5.125 C-17.667947 4.47665346 -16.39680294 3.83142185 -15.125 3.1875 C-14.41730469 2.82785156 -13.70960937 2.46820313 -12.98046875 2.09765625 C-8.61880963 0.02107284 -4.72988899 -0.02540674 0 0 Z " fill="#BCC5CE" transform="translate(102.9375,202.875)"/>
<path d="M0 0 C8.58638086 -0.32266149 16.75963387 -0.13832435 24 5 C23.67 5.99 23.34 6.98 23 8 C21.989375 7.401875 20.97875 6.80375 19.9375 6.1875 C13.73739725 3.03699571 6.79080031 2.1671688 0 1 C0 0.67 0 0.34 0 0 Z " fill="#B3B8C0" transform="translate(95,50)"/>
<path d="M0 0 C7.59762024 -0.38999191 13.84466021 0.39241413 21 3 C17.57915214 4.14028262 16.45734286 3.70707294 13 3 C10.56333235 2.93298494 8.12498258 2.91471979 5.6875 2.9375 C4.43324219 2.94652344 3.17898437 2.95554688 1.88671875 2.96484375 C0.93410156 2.97644531 -0.01851562 2.98804688 -1 3 C-0.67 2.01 -0.34 1.02 0 0 Z " fill="#ABAEB5" transform="translate(215,172)"/>
<path d="M0 0 C5.8888434 -0.21221057 10.83290313 0.44679567 16.5 2 C17.59054688 2.28617187 17.59054688 2.28617187 18.703125 2.578125 C20.47106531 3.04337245 22.23588933 3.52043593 24 4 C20.57610821 6.11408083 20.57610821 6.11408083 18.02734375 5.609375 C17.33769531 5.32578125 16.64804688 5.0421875 15.9375 4.75 C10.72607756 2.79571659 5.48273214 1.87108828 0 1 C0 0.67 0 0.34 0 0 Z " fill="#9F9EA4" transform="translate(87,110)"/>
<path d="M0 0 C-2.57728139 1.39602742 -5.18579587 2.44917527 -7.9375 3.4375 C-11.20791695 4.63563406 -14.07681554 6.0816602 -17 8 C-16.63225772 5.53457287 -16.40922938 4.33064918 -14.43359375 2.734375 C-9.33699101 0.22098187 -5.67528491 -0.40537749 0 0 Z " fill="#B9C0C8" transform="translate(201,48)"/>
<path d="M0 0 C4.455 0.99 4.455 0.99 9 2 C5 4 5 4 1.75 3.125 C0.8425 2.75375 -0.065 2.3825 -1 2 C-0.67 1.34 -0.34 0.68 0 0 Z " fill="#A9ABB2" transform="translate(102,112)"/>
</svg>
