<?xml version="1.0" encoding="UTF-8"?>
<svg version="1.1" xmlns="http://www.w3.org/2000/svg" width="174" height="158">
<path d="M0 0 C57.42 0 114.84 0 174 0 C174 52.14 174 104.28 174 158 C116.58 158 59.16 158 0 158 C0 105.86 0 53.72 0 0 Z " fill="#394054" transform="translate(0,0)"/>
<path d="M0 0 C7.69743873 7.26114665 11.72759209 16.17139163 12.0625 26.6875 C11.80114848 37.74679594 8.16336814 45.6321641 0.75 53.875 C-6.02321184 59.86856156 -14.97101329 63.61300235 -24.12890625 63.15234375 C-34.21581525 61.83342931 -42.9883686 58.38355318 -49.359375 50.1484375 C-54.11341433 42.86022018 -56.59270195 37.34600971 -56.5 28.5625 C-56.50773437 27.84126953 -56.51546875 27.12003906 -56.5234375 26.37695312 C-56.48832665 16.58980346 -53.76755685 9.2701453 -47.25 1.875 C-33.86174911 -10.57918687 -14.50586279 -11.67075109 0 0 Z " fill="#E6804B" transform="translate(106.25,54.125)"/>
<path d="M0 0 C1.93341947 1.93341947 1.17449133 5.37479121 1.1875 7.9375 C1.20167969 9.20464844 1.21585938 10.47179687 1.23046875 11.77734375 C1 15 1 15 -1 17 C-6.00377768 16.71386022 -10.01545704 14.73558893 -14.375 12.4375 C-15.33599609 11.9434668 -15.33599609 11.9434668 -16.31640625 11.43945312 C-17.88138632 10.63360518 -19.44124021 9.81781507 -21 9 C-20.83984375 7.13671875 -20.83984375 7.13671875 -20 5 C-17.56640625 3.76953125 -17.56640625 3.76953125 -14.5625 2.8125 C-13.57378906 2.48894531 -12.58507812 2.16539063 -11.56640625 1.83203125 C-10.71949219 1.55746094 -9.87257813 1.28289062 -9 1 C-6.01787087 -0.49106457 -3.28390342 -0.11941467 0 0 Z " fill="#E79250" transform="translate(43,73)"/>
<path d="M0 0 C2.29866719 3.44800079 2.33948138 5.16923377 2.5625 9.25 C2.85277614 13.88923478 3.25347014 18.41417374 4 23 C-1.11202626 22.03787261 -4.82383563 18.94263539 -9 16 C-10.010625 15.319375 -11.02125 14.63875 -12.0625 13.9375 C-14 12 -14 12 -14.625 9.4375 C-14 7 -14 7 -11.875 5.4375 C-10.92625 4.963125 -9.9775 4.48875 -9 4 C-7.96875 3.278125 -6.9375 2.55625 -5.875 1.8125 C-3 0 -3 0 0 0 Z " fill="#E4874E" transform="translate(112,113)"/>
<path d="M0 0 C2.72124863 1.46110955 3.70803594 3.21687605 5.26953125 5.86328125 C6.06810547 7.17232422 6.06810547 7.17232422 6.8828125 8.5078125 C7.95703125 11.05078125 7.95703125 11.05078125 7.75 13.25 C6.95703125 15.05078125 6.95703125 15.05078125 4.95703125 17.05078125 C2.98583984 17.36962891 2.98583984 17.36962891 0.60546875 17.46484375 C-0.2453125 17.50351563 -1.09609375 17.5421875 -1.97265625 17.58203125 C-2.86210938 17.61296875 -3.7515625 17.64390625 -4.66796875 17.67578125 C-5.56515625 17.71445313 -6.46234375 17.753125 -7.38671875 17.79296875 C-9.60526145 17.88737482 -11.82379278 17.97294873 -14.04296875 18.05078125 C-13.50293878 13.96815469 -12.31541168 11.67102683 -9.73046875 8.48828125 C-9.13621094 7.74449219 -8.54195312 7.00070313 -7.9296875 6.234375 C-6.99576172 5.15349609 -6.99576172 5.15349609 -6.04296875 4.05078125 C-5.38941406 3.27863281 -4.73585938 2.50648437 -4.0625 1.7109375 C-2.04296875 0.05078125 -2.04296875 0.05078125 0 0 Z " fill="#E5874D" transform="translate(44.04296875,94.94921875)"/>
<path d="M0 0 C3.90183156 0.23348129 7.02123609 1.16095605 10.70703125 2.453125 C11.94066406 2.87078125 13.17429688 3.2884375 14.4453125 3.71875 C17.39453125 5.203125 17.39453125 5.203125 18.3125 7.375 C18.33957031 7.97828125 18.36664063 8.5815625 18.39453125 9.203125 C17.83765625 9.44546875 17.28078125 9.6878125 16.70703125 9.9375 C12.08999393 11.96525288 7.61290286 14.08836197 3.21875 16.56640625 C0.90425635 17.37424879 -0.33202276 17.03203601 -2.60546875 16.203125 C-3.60546875 15.203125 -3.60546875 15.203125 -3.73828125 12.078125 C-3.73570313 10.799375 -3.733125 9.520625 -3.73046875 8.203125 C-3.73304687 6.924375 -3.735625 5.645625 -3.73828125 4.328125 C-3.56615182 0.27802083 -3.56615182 0.27802083 0 0 Z " fill="#DB6747" transform="translate(126.60546875,72.796875)"/>
<path d="M0 0 C3.68959075 0.22855872 4.82940664 0.81544646 7.38671875 3.58203125 C8.52560547 5.18111328 8.52560547 5.18111328 9.6875 6.8125 C10.45449219 7.87082031 11.22148437 8.92914063 12.01171875 10.01953125 C13.54597405 12.31940707 14.86368177 14.49037738 16 17 C12.26570001 18.24165475 8.89377948 17.96385935 5 17.6875 C3.1746875 17.56955078 3.1746875 17.56955078 1.3125 17.44921875 C-1.65118084 17.04730449 -3.48248208 16.54197973 -6 15 C-6.37815631 10.62756771 -5.34305827 8.34852855 -3 4.6875 C-2.1646875 3.36298828 -2.1646875 3.36298828 -1.3125 2.01171875 C-0.879375 1.34785156 -0.44625 0.68398437 0 0 Z " fill="#DD6B47" transform="translate(121,95)"/>
<path d="M0 0 C0.99 0.33 1.98 0.66 3 1 C4.09765625 3.328125 4.09765625 3.328125 5.0625 6.25 C6.46931576 10.45894898 6.46931576 10.45894898 8.18359375 14.546875 C9.14673391 17.44090381 8.8273887 19.10413953 8 22 C5.52076199 22.02685095 3.0418116 22.04676547 0.5625 22.0625 C-0.14455078 22.07087891 -0.85160156 22.07925781 -1.58007812 22.08789062 C-3.38693559 22.09653588 -5.19387603 22.05220011 -7 22 C-8 21 -8 21 -8.3125 18.3125 C-7.92285195 14.18223072 -6.36362553 12.3766079 -4 9 C-2.88491311 6.36742529 -1.95938165 3.69540559 -1 1 C-0.67 0.67 -0.34 0.34 0 0 Z " fill="#E5854D" transform="translate(83,18)"/>
<path d="M0 0 C1.66611905 -0.042721 3.33382885 -0.04063832 5 0 C5.33 0.33 5.66 0.66 6 1 C9.29684855 1.28609016 12.59381125 1.44890147 15.8984375 1.62109375 C19 2 19 2 22 4 C21.41296528 7.6383251 20.44276618 10.51118068 18.6875 13.75 C18.27886719 14.52859375 17.87023437 15.3071875 17.44921875 16.109375 C16 18 16 18 13.953125 18.85546875 C12 19 12 19 10.0625 17.5625 C7.83560013 14.79574562 5.99942921 11.93481434 4.171875 8.89453125 C2.97143045 6.87575625 2.97143045 6.87575625 1.1875 4.6875 C0 3 0 3 0 0 Z " fill="#E3854D" transform="translate(30,48)"/>
<path d="M0 0 C4.29647914 0.85561576 6.79978815 3.15369393 10 6 C11.29019722 7.10588333 12.58185689 8.21006284 13.875 9.3125 C14.91702339 10.20791837 15.9588208 11.10360016 17 12 C16.68321942 15.14632918 16.40104558 16.61766446 14.07421875 18.8359375 C13.28660156 19.34382813 12.49898437 19.85171875 11.6875 20.375 C10.90761719 20.89835937 10.12773438 21.42171875 9.32421875 21.9609375 C7 23 7 23 4.83203125 22.7890625 C3 22 3 22 1 20 C0.68115234 17.93701172 0.68115234 17.93701172 0.5859375 15.4296875 C0.54726563 14.53378906 0.50859375 13.63789062 0.46875 12.71484375 C0.4378125 11.77769531 0.406875 10.84054688 0.375 9.875 C0.33632813 8.93011719 0.29765625 7.98523437 0.2578125 7.01171875 C0.16338654 4.67467625 0.07781606 2.33764499 0 0 Z " fill="#E27C4B" transform="translate(53,26)"/>
<path d="M0 0 C3.23705547 0.37805027 4.85358964 1.42495974 7.48828125 3.3125 C8.27847656 3.869375 9.06867188 4.42625 9.8828125 5 C10.47449219 5.433125 11.06617187 5.86625 11.67578125 6.3125 C11.17630455 10.15263255 10.55591489 11.92882 7.48828125 14.3125 C6.86050781 14.81007812 6.23273437 15.30765625 5.5859375 15.8203125 C4.95558594 16.31273437 4.32523438 16.80515625 3.67578125 17.3125 C2.59115799 18.26937318 1.50771599 19.22758797 0.42578125 20.1875 C-2.32421875 22.3125 -2.32421875 22.3125 -5.32421875 22.3125 C-5.21462157 19.02012945 -5.08392944 15.72893113 -4.94921875 12.4375 C-4.91828125 11.50035156 -4.88734375 10.56320313 -4.85546875 9.59765625 C-4.81679688 8.70175781 -4.778125 7.80585937 -4.73828125 6.8828125 C-4.70686035 6.05539551 -4.67543945 5.22797852 -4.64306641 4.37548828 C-4.1628373 1.26833979 -3.07090615 0.41289494 0 0 Z " fill="#DF764A" transform="translate(57.32421875,113.6875)"/>
<path d="M0 0 C0.99 0.33 1.98 0.66 3 1 C2.71781919 3.91786964 2.42465873 6.833918 2.125 9.75 C2.00705078 10.9875 2.00705078 10.9875 1.88671875 12.25 C1.80292969 13.04921875 1.71914062 13.8484375 1.6328125 14.671875 C1.52283936 15.77160645 1.52283936 15.77160645 1.41064453 16.89355469 C0.96110247 19.19952905 0.1362627 20.95391841 -1 23 C-4.99012371 22.44010697 -7.5255052 21.24330232 -10.8125 18.9375 C-11.60269531 18.38964844 -12.39289063 17.84179688 -13.20703125 17.27734375 C-13.79871094 16.85582031 -14.39039062 16.43429688 -15 16 C-15.125 13.375 -15.125 13.375 -14 10 C-11.61619066 8.23485624 -9.17009101 6.86589692 -6.54296875 5.4921875 C-3.90864563 3.94639421 -2.06076466 2.23849961 0 0 Z " fill="#E3864E" transform="translate(112,26)"/>
<path d="M0 0 C-0.51348357 4.49298123 -2.13352105 6.57615015 -5 10 C-6.25405606 12.09141628 -7.47061242 14.19718177 -8.65625 16.328125 C-10.30313023 18.3771504 -11.44507451 18.63191751 -14 19 C-20.73963356 10.8659595 -20.73963356 10.8659595 -21.375 6.3125 C-21.25125 5.549375 -21.1275 4.78625 -21 4 C-17.51488165 1.67658777 -14.54680528 1.34520023 -10.5 0.875 C-9.82324219 0.78863281 -9.14648438 0.70226563 -8.44921875 0.61328125 C-5.61134191 0.26064567 -2.86230747 0 0 0 Z " fill="#E27C4B" transform="translate(136,48)"/>
<path d="M0 0 C1.1653125 0.00515625 2.330625 0.0103125 3.53125 0.015625 C4.6965625 0.01046875 5.861875 0.0053125 7.0625 0 C10.03125 0.265625 10.03125 0.265625 12.03125 2.265625 C11.64553857 6.78302501 10.28267367 10.84148967 8.71875 15.078125 C8.10580078 16.78935547 8.10580078 16.78935547 7.48046875 18.53515625 C6.03125 21.265625 6.03125 21.265625 3.86328125 22.15234375 C3.25871094 22.18972656 2.65414062 22.22710937 2.03125 22.265625 C1.77730469 21.60175781 1.52335937 20.93789062 1.26171875 20.25390625 C-0.89152888 14.69007757 -0.89152888 14.69007757 -3.71875 9.453125 C-5.21878759 6.82805922 -5.37116757 5.24351504 -4.96875 2.265625 C-2.96875 0.265625 -2.96875 0.265625 0 0 Z " fill="#E4834D" transform="translate(79.96875,121.734375)"/>
<path d="M0 0 C2.45158234 0.52784811 3.80062334 0.82974577 5.73828125 2.484375 C7.67064498 6.33713736 7.31674449 10.00812953 7.1875 14.25 C7.17396484 15.09046875 7.16042969 15.9309375 7.14648438 16.796875 C7.11123464 18.86485938 7.0574302 20.93251271 7 23 C4.13275314 22.42655063 3.1385485 22.1385485 1 20 C0.68115234 17.93701172 0.68115234 17.93701172 0.5859375 15.4296875 C0.54726563 14.53378906 0.50859375 13.63789062 0.46875 12.71484375 C0.4378125 11.77769531 0.406875 10.84054688 0.375 9.875 C0.33632813 8.93011719 0.29765625 7.98523437 0.2578125 7.01171875 C0.16338654 4.67467625 0.07781606 2.33764499 0 0 Z " fill="#DE6847" transform="translate(53,26)"/>
<path d="M0 0 C0.99 0 1.98 0 3 0 C3.08710289 3.10398978 3.14042309 6.20766548 3.1875 9.3125 C3.21263672 10.19357422 3.23777344 11.07464844 3.26367188 11.98242188 C3.27333984 12.82998047 3.28300781 13.67753906 3.29296875 14.55078125 C3.3086792 15.33106689 3.32438965 16.11135254 3.34057617 16.9152832 C2.9095481 19.55366936 2.13858594 20.43445625 0 22 C-0.99 22 -1.98 22 -3 22 C-2.89040282 18.70762945 -2.75971069 15.41643113 -2.625 12.125 C-2.5940625 11.18785156 -2.563125 10.25070313 -2.53125 9.28515625 C-2.49257813 8.38925781 -2.45390625 7.49335937 -2.4140625 6.5703125 C-2.3826416 5.74289551 -2.3512207 4.91547852 -2.31884766 4.06298828 C-2 2 -2 2 0 0 Z " fill="#E26846" transform="translate(55,114)"/>
<path d="M0 0 C3.33134241 1.40495745 5.09333146 2.98854968 7.25 5.875 C7.77078125 6.55304688 8.2915625 7.23109375 8.828125 7.9296875 C10 10 10 10 10 14 C8.54119891 13.85892253 7.08296449 13.71197585 5.625 13.5625 C4.40683594 13.44068359 4.40683594 13.44068359 3.1640625 13.31640625 C1 13 1 13 -1 12 C-1.02698189 10.37509046 -1.04638757 8.75005367 -1.0625 7.125 C-1.07410156 6.22007813 -1.08570312 5.31515625 -1.09765625 4.3828125 C-1 2 -1 2 0 0 Z " fill="#E68F4F" transform="translate(126,99)"/>
<path d="M0 0 C0.66 0.33 1.32 0.66 2 1 C1.34 1.66 0.68 2.32 0 3 C-0.36894582 5.03060659 -0.36894582 5.03060659 -0.4140625 7.3515625 C-0.47207031 8.62773437 -0.47207031 8.62773437 -0.53125 9.9296875 C-0.5621875 10.81914062 -0.593125 11.70859375 -0.625 12.625 C-0.66367188 13.5221875 -0.70234375 14.419375 -0.7421875 15.34375 C-0.83659357 17.5622927 -0.92216748 19.78082403 -1 22 C-2.99954746 22.04254356 -5.00041636 22.04080783 -7 22 C-8 21 -8 21 -8.3125 18.3125 C-7.92285195 14.18223072 -6.36362553 12.3766079 -4 9 C-2.88491311 6.36742529 -1.95938165 3.69540559 -1 1 C-0.67 0.67 -0.34 0.34 0 0 Z " fill="#DA6847" transform="translate(83,18)"/>
<path d="M0 0 C1.96411133 0.82543945 1.96411133 0.82543945 4 2 C4.57421875 4.79296875 4.57421875 4.79296875 4.6875 8.1875 C4.76871094 9.93160156 4.76871094 9.93160156 4.8515625 11.7109375 C4.90054688 12.79632813 4.94953125 13.88171875 5 15 C5.26640651 17.35198893 5.61962718 19.6634241 6 22 C3.13275314 21.42655063 2.1385485 21.1385485 0 19 C-0.22705078 17.02880859 -0.22705078 17.02880859 -0.1953125 14.6484375 C-0.18886719 13.79765625 -0.18242188 12.946875 -0.17578125 12.0703125 C-0.15902344 11.18085937 -0.14226562 10.29140625 -0.125 9.375 C-0.11597656 8.4778125 -0.10695313 7.580625 -0.09765625 6.65625 C-0.0740497 4.43723414 -0.0411231 2.21874923 0 0 Z " fill="#E79851" transform="translate(110,114)"/>
<path d="M0 0 C0.99 0.33 1.98 0.66 3 1 C2.71840367 3.93878727 2.42518615 6.87560413 2.125 9.8125 C2.04636719 10.64587891 1.96773438 11.47925781 1.88671875 12.33789062 C1.80292969 13.14033203 1.71914062 13.94277344 1.6328125 14.76953125 C1.55949707 15.50792236 1.48618164 16.24631348 1.41064453 17.00708008 C1 19 1 19 -1 22 C-1.66 22 -2.32 22 -3 22 C-3.27603012 19.08368173 -3.52158705 16.17010285 -3.75 13.25 C-3.83121094 12.425 -3.91242188 11.6 -3.99609375 10.75 C-4.44413244 4.57702246 -4.44413244 4.57702246 -2.015625 1.421875 C-1.35046875 0.95265625 -0.6853125 0.4834375 0 0 Z " fill="#E89A52" transform="translate(112,26)"/>
<path d="M0 0 C-0.33 3.3 -0.66 6.6 -1 10 C-9.75 7.125 -9.75 7.125 -12 6 C-11.77734375 4.11328125 -11.77734375 4.11328125 -11 2 C-9.00390625 0.91796875 -9.00390625 0.91796875 -6.5625 0.1875 C-5.75941406 -0.06644531 -4.95632812 -0.32039063 -4.12890625 -0.58203125 C-2 -1 -2 -1 0 0 Z " fill="#D86A48" transform="translate(34,76)"/>
<path d="M0 0 C0 4.95 0 9.9 0 15 C-3.3381152 11.6618848 -5.71107655 9.07061807 -6.375 4.3125 C-6.25125 3.549375 -6.1275 2.78625 -6 2 C-3 0 -3 0 0 0 Z " fill="#D96045" transform="translate(121,50)"/>
<path d="M0 0 C1.3609623 2.7219246 0.70366248 4.1831957 0.0625 7.125 C-0.13214844 8.03507812 -0.32679687 8.94515625 -0.52734375 9.8828125 C-0.68332031 10.58148438 -0.83929688 11.28015625 -1 12 C0.98 12 2.96 12 5 12 C5 12.33 5 12.66 5 13 C-1.435 13.495 -1.435 13.495 -8 14 C-7.03302499 9.16512496 -6.40457204 7.80193322 -3.4375 4.1875 C-2.47650391 3.00220703 -2.47650391 3.00220703 -1.49609375 1.79296875 C-1.00238281 1.20128906 -0.50867187 0.60960938 0 0 Z " fill="#D86547" transform="translate(38,99)"/>
<path d="M0 0 C2.64 0.33 5.28 0.66 8 1 C8.33 2.32 8.66 3.64 9 5 C4.05 6.485 4.05 6.485 -1 8 C-1.125 2.25 -1.125 2.25 0 0 Z " fill="#E19251" transform="translate(136,77)"/>
<path d="M0 0 C2.86724686 0.57344937 3.8614515 0.8614515 6 3 C5.8125 5.5 5.8125 5.5 5 8 C2 10 2 10 -1 10 C-1.125 2.25 -1.125 2.25 0 0 Z " fill="#E8904F" transform="translate(64,35)"/>
<path d="M0 0 C1.65 0 3.3 0 5 0 C5.88336837 2.4667645 6.1312406 3.63859372 5.22265625 6.140625 C4.83980469 6.83671875 4.45695312 7.5328125 4.0625 8.25 C3.68222656 8.95640625 3.30195312 9.6628125 2.91015625 10.390625 C2.60980469 10.92171875 2.30945313 11.4528125 2 12 C1.34 12 0.68 12 0 12 C0 8.04 0 4.08 0 0 Z " fill="#EC9951" transform="translate(86,123)"/>
<path d="M0 0 C0.33 3.96 0.66 7.92 1 12 C-4 10 -4 10 -6 8 C-6.4375 5.5625 -6.4375 5.5625 -6 3 C-1.96551724 0 -1.96551724 0 0 0 Z " fill="#DC6847" transform="translate(104,117)"/>
<path d="M0 0 C1.31157516 2.62315032 0.89649988 4.23033436 0.5625 7.125 C0.46066406 8.03507812 0.35882813 8.94515625 0.25390625 9.8828125 C0.17011719 10.58148438 0.08632812 11.28015625 0 12 C-2.4375 11.3125 -2.4375 11.3125 -5 10 C-6.0625 7.625 -6.0625 7.625 -6 5 C-4.15554062 2.71032629 -2.62637553 1.31318776 0 0 Z " fill="#DA6246" transform="translate(103,33)"/>
<path d="M0 0 C3 1 3 1 4.25 3.25 C5.07700926 6.28236729 4.85394079 8.01120724 4 11 C2.35 11 0.7 11 -1 11 C-1.0270043 9.54176788 -1.04639787 8.08339325 -1.0625 6.625 C-1.07410156 5.81289063 -1.08570312 5.00078125 -1.09765625 4.1640625 C-1 2 -1 2 0 0 Z " fill="#EA9951" transform="translate(87,29)"/>
<path d="M0 0 C1.32 0.33 2.64 0.66 4 1 C4.33 1.66 4.66 2.32 5 3 C4.34 3 3.68 3 3 3 C3 8.94 3 14.88 3 21 C2.34 20.67 1.68 20.34 1 20 C0.67 13.4 0.34 6.8 0 0 Z " fill="#D95A44" transform="translate(53,26)"/>
<path d="M0 0 C1.32 0.33 2.64 0.66 4 1 C3.67 4.63 3.34 8.26 3 12 C0 11 0 11 -1.1875 9.25 C-2.12847321 6.64422804 -2.28958007 4.75101068 -2 2 C-1.34 1.34 -0.68 0.68 0 0 Z " fill="#DE6446" transform="translate(77,122)"/>
<path d="M0 0 C0.33 0 0.66 0 1 0 C1 6.93 1 13.86 1 21 C0.01 21 -0.98 21 -2 21 C-1.86179731 17.6871348 -1.71316222 14.37482011 -1.5625 11.0625 C-1.52318359 10.11697266 -1.48386719 9.17144531 -1.44335938 8.19726562 C-1.40146484 7.29814453 -1.35957031 6.39902344 -1.31640625 5.47265625 C-1.27974854 4.64000244 -1.24309082 3.80734863 -1.20532227 2.94946289 C-1 1 -1 1 0 0 Z " fill="#D45844" transform="translate(54,115)"/>
<path d="M0 0 C5 2 5 2 6.0625 4.375 C6 7 6 7 4.1875 9.3125 C2 11 2 11 0 11 C0 7.37 0 3.74 0 0 Z " fill="#E59150" transform="translate(63,117)"/>
<path d="M0 0 C0.99 0.33 1.98 0.66 3 1 C3 5.62 3 10.24 3 15 C2.01 15.33 1.02 15.66 0 16 C0 10.72 0 5.44 0 0 Z " fill="#D79C55" transform="translate(41,73)"/>
<path d="M0 0 C-0.44479039 5.04095775 -2.66154153 7.41115715 -6 11 C-6.33 11 -6.66 11 -7 11 C-7 8.03 -7 5.06 -7 2 C-3 0 -3 0 0 0 Z " fill="#E89B52" transform="translate(136,48)"/>
<path d="M0 0 C0.66 0.33 1.32 0.66 2 1 C1.67 1.33 1.34 1.66 1 2 C0.76472227 4.34987262 0.58613583 6.70556039 0.4375 9.0625 C0.35371094 10.35285156 0.26992187 11.64320312 0.18359375 12.97265625 C0.12300781 13.97167969 0.06242187 14.97070312 0 16 C-0.66 16 -1.32 16 -2 16 C-3.29004296 13.41991408 -3.20410224 11.44258426 -3.25 8.5625 C-3.27578125 7.59441406 -3.3015625 6.62632813 -3.328125 5.62890625 C-3 3 -3 3 -1.484375 1.15234375 C-0.99453125 0.77207031 -0.5046875 0.39179687 0 0 Z " fill="#E2794A" transform="translate(107,114)"/>
<path d="M0 0 C0.33 0 0.66 0 1 0 C1 4.95 1 9.9 1 15 C0.01 14.67 -0.98 14.34 -2 14 C-2.05410687 12.22950311 -2.09284119 10.45853151 -2.125 8.6875 C-2.14820312 7.70136719 -2.17140625 6.71523438 -2.1953125 5.69921875 C-2 3 -2 3 0 0 Z " fill="#E4784A" transform="translate(105,32)"/>
<path d="M0 0 C0.66 0 1.32 0 2 0 C2.33 3.96 2.66 7.92 3 12 C1.68 12.33 0.36 12.66 -1 13 C-1.02696365 11.20841511 -1.04637917 9.41671527 -1.0625 7.625 C-1.07410156 6.62726563 -1.08570313 5.62953125 -1.09765625 4.6015625 C-1 2 -1 2 0 0 Z " fill="#E5844D" transform="translate(61,117)"/>
<path d="M0 0 C4.76058041 5.52841596 4.76058041 5.52841596 5 9 C4.34 9.66 3.68 10.32 3 11 C2.01 11 1.02 11 0 11 C0 7.37 0 3.74 0 0 Z " fill="#E29E54" transform="translate(47,100)"/>
<path d="M0 0 C0.66 0 1.32 0 2 0 C2 5.94 2 11.88 2 18 C-1.01186215 13.48220677 -1.13606035 10.60322997 -0.5625 5.25 C-0.46066406 4.26515625 -0.35882813 3.2803125 -0.25390625 2.265625 C-0.17011719 1.51796875 -0.08632812 0.7703125 0 0 Z " fill="#E37248" transform="translate(80,123)"/>
<path d="M0 0 C1.98 0.99 1.98 0.99 4 2 C3.67 3.65 3.34 5.3 3 7 C2.01 7.33 1.02 7.66 0 8 C0 5.36 0 2.72 0 0 Z " fill="#E59E53" transform="translate(66,36)"/>
<path d="M0 0 C0.99 0.33 1.98 0.66 3 1 C2.67 2.65 2.34 4.3 2 6 C1.01 6.33 0.02 6.66 -1 7 C-1.04254356 5.00045254 -1.04080783 2.99958364 -1 1 C-0.67 0.67 -0.34 0.34 0 0 Z " fill="#ECA253" transform="translate(66,119)"/>
<path d="M0 0 C1.65 0 3.3 0 5 0 C4.67 2.31 4.34 4.62 4 7 C2 5.1875 2 5.1875 0 3 C0 2.01 0 1.02 0 0 Z " fill="#CA5745" transform="translate(30,48)"/>
<path d="M0 0 C0.66 0.33 1.32 0.66 2 1 C1.67 3.64 1.34 6.28 1 9 C0.01 8.34 -0.98 7.68 -2 7 C-2.3125 4.5 -2.3125 4.5 -2 2 C-1.34 1.34 -0.68 0.68 0 0 Z " fill="#D25744" transform="translate(100,118)"/>
<path d="M0 0 C0.66 0 1.32 0 2 0 C2.33 2.31 2.66 4.62 3 7 C2.01 7.33 1.02 7.66 0 8 C0 5.36 0 2.72 0 0 Z " fill="#D79A54" transform="translate(89,32)"/>
<path d="M0 0 C0.99 0.33 1.98 0.66 3 1 C2.25 6.75 2.25 6.75 0 9 C0 6.03 0 3.06 0 0 Z " fill="#E09F54" transform="translate(89,123)"/>
<path d="M0 0 C2.125 0.375 2.125 0.375 4 1 C3.01 1 2.02 1 1 1 C0.67 2.98 0.34 4.96 0 7 C-0.66 7 -1.32 7 -2 7 C-2.125 4.625 -2.125 4.625 -2 2 C-1.34 1.34 -0.68 0.68 0 0 Z " fill="#CF5845" transform="translate(77,122)"/>
<path d="M0 0 C0.66 0 1.32 0 2 0 C1.34 2.64 0.68 5.28 0 8 C-0.66 8 -1.32 8 -2 8 C-2.20086443 4.28400809 -2.1519437 3.22791555 0 0 Z " fill="#DA874F" transform="translate(86,135)"/>
<path d="M0 0 C0.99 0.33 1.98 0.66 3 1 C3 2.65 3 4.3 3 6 C2.01 6 1.02 6 0 6 C0 4.02 0 2.04 0 0 Z " fill="#D39855" transform="translate(113,130)"/>
</svg>
